<svg version="1.1" id="Layer_1" xmlns="http://www.w3.org/2000/svg" xmlns:xlink="http://www.w3.org/1999/xlink" x="0px" y="0px"
	 width="100%" viewBox="0 0 697 358" enable-background="new 0 0 697 358" xml:space="preserve">
<path fill="#010101" opacity="1.000000" stroke="none" 
	d="
M447.000000,359.000000 
	C298.035156,359.000000 149.570328,359.000000 1.052749,359.000000 
	C1.052749,239.730118 1.052749,120.460197 1.052749,1.095138 
	C233.214844,1.095138 465.429749,1.095138 697.822327,1.095138 
	C697.822327,120.333122 697.822327,239.666534 697.822327,359.000000 
	C614.460144,359.000000 530.980103,359.000000 447.000000,359.000000 
M356.735138,334.498627 
	C356.735138,340.241058 356.735138,345.983459 356.735138,351.681519 
	C360.375702,351.681519 363.164703,351.681519 366.589539,351.681519 
	C366.589539,245.335602 366.589539,139.178284 366.589539,33.020950 
	C371.768829,40.072140 376.048798,47.277222 380.213226,54.548500 
	C393.993774,78.610130 407.697998,102.715492 421.496033,126.767097 
	C439.760681,158.604584 458.103973,190.396912 476.379761,222.227997 
	C491.264709,248.153275 506.089996,274.112793 520.967163,300.042542 
	C523.515198,304.483582 527.743958,304.477203 530.311340,300.041290 
	C538.959900,285.098572 547.606567,270.154633 556.188416,255.173584 
	C575.833252,220.880386 595.476135,186.585938 615.051147,152.252869 
	C636.190430,115.176231 657.240784,78.048889 678.365601,40.964024 
	C680.242798,37.668484 682.383179,34.522888 684.401367,31.307653 
	C684.710449,31.412163 685.019531,31.516674 685.328613,31.621183 
	C685.328613,138.344406 685.328613,245.067612 685.328613,351.600281 
	C688.745728,351.600281 691.690247,351.600281 694.778015,351.600281 
	C694.778015,237.233643 694.778015,123.137039 694.778015,8.649385 
	C691.310425,9.584123 687.465149,6.592071 684.878296,11.159563 
	C672.599670,32.839149 660.162842,54.429058 647.834717,76.080711 
	C631.732727,104.360397 615.727051,132.694916 599.593628,160.956635 
	C581.729126,192.250702 563.760010,223.484985 545.851685,254.754059 
	C539.182007,266.399811 532.555542,278.070343 525.763977,289.984589 
	C510.393555,263.248657 495.238525,236.948486 480.143463,210.613953 
	C463.213470,181.078186 446.321075,151.520828 429.442688,121.955559 
	C408.941223,86.043877 388.336365,50.189701 368.141937,14.106007 
	C365.301208,9.030165 362.278595,7.620750 356.733459,9.253492 
	C356.733459,117.259682 356.733459,225.379456 356.735138,334.498627 
M213.079849,32.376842 
	C189.356689,16.591200 162.763184,9.655424 134.749557,9.126564 
	C92.440399,8.327824 50.107910,8.763530 7.785306,8.695256 
	C7.184336,8.694286 6.582933,8.961421 6.063592,9.084091 
	C6.063592,123.409760 6.063592,237.465408 6.063592,351.568298 
	C9.243943,351.568298 12.134069,351.568298 15.441827,351.568298 
	C15.441827,312.344727 15.441827,273.418152 15.441827,234.083755 
	C17.501957,234.083755 19.137320,234.083878 20.772680,234.083740 
	C55.764610,234.080643 90.758873,234.302765 125.747101,233.941330 
	C136.679047,233.828415 147.587051,232.026001 158.525894,231.293747 
	C160.221436,231.180252 162.661041,232.175354 163.673279,233.491135 
	C170.052261,241.783173 176.179367,250.271698 182.289505,258.767365 
	C202.955994,287.502594 223.808380,316.109161 244.047684,345.142761 
	C248.625137,351.709167 253.670029,352.828125 261.157532,351.368591 
	C231.418121,310.192535 201.976501,269.428741 172.617508,228.779373 
	C180.365402,225.860275 187.921265,223.396103 195.161011,220.212952 
	C215.533463,211.255630 231.662247,197.358032 242.781845,177.931458 
	C252.527115,160.905884 256.424652,142.332306 256.629608,122.936584 
	C256.828644,104.099068 253.720245,85.892250 245.206970,68.827766 
	C237.828751,54.038368 226.996506,42.347218 213.079849,32.376842 
z"/>
<path fill="#FBFBFB" opacity="1.000000" stroke="none" 
	d="
M356.734314,333.998932 
	C356.733459,225.379456 356.733459,117.259682 356.733459,9.253492 
	C362.278595,7.620750 365.301208,9.030165 368.141937,14.106007 
	C388.336365,50.189701 408.941223,86.043877 429.442688,121.955559 
	C446.321075,151.520828 463.213470,181.078186 480.143463,210.613953 
	C495.238525,236.948486 510.393555,263.248657 525.763977,289.984589 
	C532.555542,278.070343 539.182007,266.399811 545.851685,254.754059 
	C563.760010,223.484985 581.729126,192.250702 599.593628,160.956635 
	C615.727051,132.694916 631.732727,104.360397 647.834717,76.080711 
	C660.162842,54.429058 672.599670,32.839149 684.878296,11.159563 
	C687.465149,6.592071 691.310425,9.584123 694.778015,8.649385 
	C694.778015,123.137039 694.778015,237.233643 694.778015,351.600281 
	C691.690247,351.600281 688.745728,351.600281 685.328613,351.600281 
	C685.328613,245.067612 685.328613,138.344406 685.328613,31.621183 
	C685.019531,31.516674 684.710449,31.412163 684.401367,31.307653 
	C682.383179,34.522888 680.242798,37.668484 678.365601,40.964024 
	C657.240784,78.048889 636.190430,115.176231 615.051147,152.252869 
	C595.476135,186.585938 575.833252,220.880386 556.188416,255.173584 
	C547.606567,270.154633 538.959900,285.098572 530.311340,300.041290 
	C527.743958,304.477203 523.515198,304.483582 520.967163,300.042542 
	C506.089996,274.112793 491.264709,248.153275 476.379761,222.227997 
	C458.103973,190.396912 439.760681,158.604584 421.496033,126.767097 
	C407.697998,102.715492 393.993774,78.610130 380.213226,54.548500 
	C376.048798,47.277222 371.768829,40.072140 366.589539,33.020950 
	C366.589539,139.178284 366.589539,245.335602 366.589539,351.681519 
	C363.164703,351.681519 360.375702,351.681519 356.735138,351.681519 
	C356.735138,345.983459 356.735138,340.241058 356.734314,333.998932 
z"/>
<path fill="#FBFBFB" opacity="1.000000" stroke="none" 
	d="
M213.354156,32.612812 
	C226.996506,42.347218 237.828751,54.038368 245.206970,68.827766 
	C253.720245,85.892250 256.828644,104.099068 256.629608,122.936584 
	C256.424652,142.332306 252.527115,160.905884 242.781845,177.931458 
	C231.662247,197.358032 215.533463,211.255630 195.161011,220.212952 
	C187.921265,223.396103 180.365402,225.860275 172.617508,228.779373 
	C201.976501,269.428741 231.418121,310.192535 261.157532,351.368591 
	C253.670029,352.828125 248.625137,351.709167 244.047684,345.142761 
	C223.808380,316.109161 202.955994,287.502594 182.289505,258.767365 
	C176.179367,250.271698 170.052261,241.783173 163.673279,233.491135 
	C162.661041,232.175354 160.221436,231.180252 158.525894,231.293747 
	C147.587051,232.026001 136.679047,233.828415 125.747101,233.941330 
	C90.758873,234.302765 55.764610,234.080643 20.772680,234.083740 
	C19.137320,234.083878 17.501957,234.083755 15.441827,234.083755 
	C15.441827,273.418152 15.441827,312.344727 15.441827,351.568298 
	C12.134069,351.568298 9.243943,351.568298 6.063592,351.568298 
	C6.063592,237.465408 6.063592,123.409760 6.063592,9.084091 
	C6.582933,8.961421 7.184336,8.694286 7.785306,8.695256 
	C50.107910,8.763530 92.440399,8.327824 134.749557,9.126564 
	C162.763184,9.655424 189.356689,16.591200 213.354156,32.612812 
M71.499992,224.958069 
	C90.828880,224.926025 110.170502,225.325409 129.483490,224.755051 
	C154.806091,224.007233 179.466995,219.913513 201.785095,206.788910 
	C220.896820,195.549896 234.331207,179.559311 241.156448,158.417526 
	C246.594574,141.572479 247.893860,124.275040 245.944733,106.628212 
	C241.990448,70.827522 223.858002,45.249912 191.102020,30.424585 
	C171.096268,21.370010 149.688232,18.188843 127.902054,18.032087 
	C91.744713,17.771923 55.584278,17.939556 19.425150,17.943655 
	C18.147255,17.943800 16.869381,18.121485 15.707313,18.207817 
	C15.707313,87.264084 15.707313,155.978500 15.707313,224.958527 
	C34.207966,224.958527 52.353977,224.958527 71.499992,224.958069 
z"/>
<path fill="#010101" opacity="1.000000" stroke="none" 
	d="
M70.999985,224.958298 
	C52.353977,224.958527 34.207966,224.958527 15.707313,224.958527 
	C15.707313,155.978500 15.707313,87.264084 15.707313,18.207817 
	C16.869381,18.121485 18.147255,17.943800 19.425150,17.943655 
	C55.584278,17.939556 91.744713,17.771923 127.902054,18.032087 
	C149.688232,18.188843 171.096268,21.370010 191.102020,30.424585 
	C223.858002,45.249912 241.990448,70.827522 245.944733,106.628212 
	C247.893860,124.275040 246.594574,141.572479 241.156448,158.417526 
	C234.331207,179.559311 220.896820,195.549896 201.785095,206.788910 
	C179.466995,219.913513 154.806091,224.007233 129.483490,224.755051 
	C110.170502,225.325409 90.828880,224.926025 70.999985,224.958298 
z"/>
</svg>