<?xml version="1.0" encoding="UTF-8"?>
<svg version="1.1" xmlns="http://www.w3.org/2000/svg" width="697" height="358">
<path d="M0 0 C0.77988281 -0.04898437 1.55976563 -0.09796875 2.36328125 -0.1484375 C5.88184432 0.64397838 6.70474372 2.39702303 8.6875 5.375 C10.40743563 8.27377599 12.02536187 11.22094291 13.625 14.1875 C16.4607085 19.41624844 19.37308423 24.54111272 22.56030273 29.56420898 C24.06786793 31.98604374 25.41537816 34.47946071 26.75 37 C28.3685238 40.01236821 29.98889449 42.93937198 31.9375 45.75 C33.6875 48.375 33.6875 48.375 34.55078125 50.63671875 C35.92247386 53.94103669 37.71302796 56.78966152 39.625 59.8125 C42.21985845 63.92062169 44.54215015 68.01777782 46.6875 72.375 C48.07325107 74.95496414 49.50193675 77.5099783 50.9375 80.0625 C51.33300049 80.76729492 51.72850098 81.47208984 52.13598633 82.19824219 C54.43260024 86.25745985 56.82242739 90.21939336 59.375 94.125 C62.43073816 98.81470926 64.90258464 103.6750682 67.3359375 108.7109375 C68.44290785 110.89288484 69.58478979 112.82713316 71 114.8125 C72.71787835 117.42113008 73.32552583 119.29821954 73.6875 122.375 C74.3475 122.375 75.0075 122.375 75.6875 122.375 C77.2734375 124.71875 77.2734375 124.71875 79.0625 127.875 C80.00029297 129.52628906 80.00029297 129.52628906 80.95703125 131.2109375 C82.61345121 134.23960606 84.16458475 137.29444147 85.671875 140.3984375 C87.31360856 143.59350358 89.20189945 146.63436069 91.06640625 149.703125 C96.23090844 158.21522018 101.10323217 166.88497615 105.92260742 175.59521484 C109.12542058 181.37933638 112.38643172 187.12617667 115.6796875 192.859375 C117.5405241 196.10609888 119.3679836 199.37096609 121.19384766 202.63745117 C124.18548684 207.9881444 127.19114899 213.29123516 130.5078125 218.44921875 C132.57623176 221.82581045 134.39588045 225.34091889 136.26953125 228.828125 C137.41459758 230.88482817 138.59837992 232.81848108 139.9375 234.75 C141.6875 237.375 141.6875 237.375 142.55078125 239.63671875 C143.92247386 242.94103669 145.71302796 245.78966152 147.625 248.8125 C150.22067804 252.92191926 152.52401432 257.02639378 154.6875 261.375 C156.33282901 264.33744014 158.03748313 267.26350832 159.75 270.1875 C160.19666016 270.96287109 160.64332031 271.73824219 161.10351562 272.53710938 C161.53470703 273.27380859 161.96589844 274.01050781 162.41015625 274.76953125 C162.79953369 275.43831299 163.18891113 276.10709473 163.59008789 276.79614258 C164.61357059 278.53770122 164.61357059 278.53770122 166.6875 279.375 C166.94917969 278.67890625 167.21085938 277.9828125 167.48046875 277.265625 C168.80426351 274.09537217 170.35673603 271.14190147 172 268.125 C172.62390625 266.97902344 173.2478125 265.83304687 173.890625 264.65234375 C174.48359375 263.57082031 175.0765625 262.48929687 175.6875 261.375 C176.36039063 260.13943359 176.36039063 260.13943359 177.046875 258.87890625 C179.15821814 255.03324554 181.35136995 251.25207861 183.625 247.5 C186.20708788 243.2271033 188.61669156 238.88250198 190.9921875 234.4921875 C196.0880634 225.12235117 201.28411245 215.87628992 207.0859375 206.921875 C209.19776964 203.56354682 211.07531319 200.10463819 212.94921875 196.609375 C215.20619608 192.40987561 217.50548505 188.23467145 219.8125 184.0625 C220.23249268 183.29736084 220.65248535 182.53222168 221.08520508 181.74389648 C222.87213116 178.51443114 224.67492904 175.39361745 226.7421875 172.33203125 C228.62530225 169.46954558 230.10255463 166.60686802 231.59814453 163.53466797 C233.59782309 159.57026714 235.87870338 155.76578268 238.125 151.9375 C240.88309444 147.22081422 243.63043427 142.50331817 246.26953125 137.71875 C248.40243378 133.85847013 250.64182407 130.07755551 252.9375 126.3125 C258.85400181 116.52708352 264.43545137 106.55749876 269.875 96.5 C272.16446807 92.27523571 274.58384809 88.14964456 277.09765625 84.0546875 C278.45611837 81.76499459 279.75897024 79.45854695 281.046875 77.12890625 C283.59161471 72.52644473 286.22489306 67.97985263 288.875 63.4375 C293.14800073 56.08998744 297.3261915 48.69545966 301.42651367 41.25024414 C303.44869028 37.58190326 305.50985444 33.9542793 307.6875 30.375 C310.87430404 24.98385223 314.02640006 19.57638276 317.07421875 14.10546875 C317.47688965 13.38335205 317.87956055 12.66123535 318.29443359 11.91723633 C319.08815502 10.49037017 319.87892609 9.06185817 320.66650391 7.6315918 C322.16876284 4.93065127 323.49034556 2.57215444 325.6875 0.375 C328.9875 0.375 332.2875 0.375 335.6875 0.375 C335.6875 113.895 335.6875 227.415 335.6875 344.375 C331.7275 344.375 327.7675 344.375 323.6875 344.375 C323.6875 240.095 323.6875 135.815 323.6875 28.375 C323.0275 28.375 322.3675 28.375 321.6875 28.375 C321.3471875 29.3340625 321.3471875 29.3340625 321 30.3125 C318.45805779 36.24369849 315.08861105 41.7382248 311.75 47.25 C309.6965707 50.64284892 307.74928207 54.06763703 305.875 57.5625 C301.55138779 65.5806274 296.76295875 73.32864867 292.0234375 81.10546875 C290.93136054 82.96072229 289.94868636 84.87999076 289 86.8125 C284.87794307 95.15101211 280.14450549 103.21360135 275.0625 111 C272.0402233 115.66705314 269.57499062 120.48488075 267.14453125 125.48046875 C265.37182232 129.00212376 263.372887 132.33645244 261.3125 135.6953125 C259.42485056 138.80811902 257.61292641 141.96132531 255.8125 145.125 C255.47420166 145.71925781 255.13590332 146.31351563 254.78735352 146.92578125 C254.09643167 148.14015841 253.40575922 149.35467748 252.71533203 150.56933594 C251.06627298 153.46635274 249.4070613 156.35755502 247.75 159.25 C245.59023284 163.02426765 243.44343277 166.80438603 241.32421875 170.6015625 C240.9264624 171.31328613 240.52870605 172.02500977 240.11889648 172.75830078 C239.35450636 174.12785284 238.5921605 175.49854872 237.83227539 176.87060547 C235.61887452 180.83537435 233.2150032 184.5991568 230.6875 188.375 C229.66377086 190.17420396 228.662747 191.98656201 227.6875 193.8125 C225.75082873 197.42797054 223.76551324 201.00772495 221.72314453 204.56469727 C220.71056422 206.33468383 219.71034139 208.11098229 218.71484375 209.890625 C211.27669234 223.1870331 203.71968472 236.41370506 195.8125 249.4375 C192.89287588 254.24815781 190.23611186 259.11776959 187.79296875 264.1875 C186.37121385 267.00086658 184.70253618 269.60824057 183 272.2578125 C180.3610486 276.51469243 178.058691 280.96541673 175.6875 285.375 C174.56375564 287.4381844 173.43879952 289.50070936 172.3125 291.5625 C171.80976562 292.48417969 171.30703125 293.40585937 170.7890625 294.35546875 C170.42554688 295.02191406 170.06203125 295.68835938 169.6875 296.375 C164.66737507 297.11912163 164.66737507 297.11912163 161.6875 296.375 C159.10550927 293.87511121 157.55815187 290.90132933 155.875 287.75 C155.41158203 286.94175781 154.94816406 286.13351562 154.47070312 285.30078125 C152.06215913 281.06257079 149.86023885 276.73814225 147.6875 272.375 C146.30005618 269.79594519 144.87309522 267.2400104 143.4375 264.6875 C143.04272461 263.98415527 142.64794922 263.28081055 142.24121094 262.55615234 C139.40963814 257.55233585 136.37796166 252.71379707 133.2421875 247.89453125 C131.21509409 244.60941756 129.54903315 241.19737638 127.875 237.72265625 C126.36745186 234.74227325 124.60896624 231.97261481 122.80078125 229.16796875 C121.6875 227.375 121.6875 227.375 120.25 224.4375 C118.90952474 221.81016849 117.47894796 219.54622592 115.8125 217.125 C113.19645369 213.2714612 111.1152827 209.34692621 109.08984375 205.16015625 C106.51609581 200.04850645 103.5936097 195.12759857 100.72705078 190.17626953 C99.07466045 187.31310939 97.44585727 184.43654885 95.8125 181.5625 C87.21202732 166.43941949 87.21202732 166.43941949 78 151.6875 C75.01665711 147.0826225 72.56923939 142.27796247 70.16894531 137.35473633 C68.32871869 133.59717573 66.34787416 130.05985638 64.06640625 126.55859375 C59.42332731 119.20595599 55.29308961 111.4958809 51.08203125 103.890625 C45.9777277 94.68286174 40.82090423 85.52635917 35.35351562 76.52856445 C31.17587963 69.60688313 27.2365688 62.55024073 23.29199219 55.49389648 C20.55509466 50.61264732 17.75338764 45.80446342 14.75488281 41.0793457 C13.39647402 38.91030366 12.15561491 36.68784865 10.9375 34.4375 C9.5533132 31.72777642 9.5533132 31.72777642 7.6875 29.375 C7.3575 133.325 7.0275 237.275 6.6875 344.375 C3.0575 344.375 -0.5725 344.375 -4.3125 344.375 C-5.07223477 340.32250824 -5.43768582 336.49726766 -5.43834114 332.37645245 C-5.44094889 331.19121854 -5.44355664 330.00598464 -5.44624341 328.78483456 C-5.44401268 327.49174416 -5.44178196 326.19865375 -5.43948364 324.86637878 C-5.44063627 323.47185501 -5.44222475 322.07733154 -5.44421089 320.6828087 C-5.44838445 316.85595677 -5.44632243 313.02912979 -5.44322467 309.20227778 C-5.44096288 305.07348946 -5.444454 300.94470544 -5.44720459 296.81591797 C-5.45165232 288.73107661 -5.45069041 280.64624454 -5.44779195 272.56140282 C-5.44553479 265.99404736 -5.44522675 259.4266945 -5.44631577 252.85933876 C-5.446469 251.92514368 -5.44662223 250.99094861 -5.44678011 250.02844459 C-5.44709983 248.13079053 -5.44742404 246.23313646 -5.4477527 244.3354824 C-5.45060437 226.54111493 -5.44732496 208.74675262 -5.44195233 190.952386 C-5.43748091 175.66918249 -5.43826362 160.38598658 -5.44287109 145.1027832 C-5.44821606 127.36491165 -5.45033357 109.62704462 -5.44725883 91.88917238 C-5.44694027 89.99997572 -5.4466259 88.11077907 -5.44631577 86.22158241 C-5.44608435 84.82719063 -5.44608435 84.82719063 -5.44584826 83.40462932 C-5.44498315 76.83920661 -5.44644579 70.27378675 -5.44879532 63.70836449 C-5.45159249 55.71630685 -5.45085666 47.72425905 -5.44551457 39.73220255 C-5.442877 35.65111946 -5.44187348 31.57005279 -5.44516373 27.4889698 C-5.44812533 23.75930958 -5.4465362 20.02968113 -5.44118617 16.30002383 C-5.43952525 14.298832 -5.44282066 12.297638 -5.44624341 10.29644841 C-5.44363566 9.12425324 -5.44102791 7.95205808 -5.43834114 6.74434185 C-5.43817879 5.724248 -5.43801644 4.70415414 -5.43784916 3.65314835 C-5.22298076 -0.25196022 -3.51886408 0.1497389 0 0 Z " fill="#D9D9D9" transform="translate(359.3125,6.625)"/>
<path d="M0 0 C155.39449541 0 155.39449541 0 180 9 C180.70995117 9.25185059 181.41990234 9.50370117 182.15136719 9.76318359 C189.24469237 12.3026669 195.88532592 15.08665298 201.97265625 19.60546875 C204.05173601 21.11760284 204.05173601 21.11760284 206.79296875 22.3046875 C210.75172826 24.39738132 213.88447459 27.01049114 217.25 29.9375 C218.18585938 30.72543945 218.18585938 30.72543945 219.140625 31.52929688 C219.73875 32.04427734 220.336875 32.55925781 220.953125 33.08984375 C221.49098633 33.55253662 222.02884766 34.01522949 222.58300781 34.49194336 C224.18029807 36.19188511 225.05526822 37.8783421 226 40 C226.66 40 227.32 40 228 40 C228 40.66 228 41.32 228 42 C228.66 42 229.32 42 230 42 C245.79941036 62.06952127 252.6182211 86.36726055 252.33618164 111.55639648 C252.31232713 113.82896891 252.31568807 116.10037839 252.32226562 118.37304688 C252.26789182 147.08767978 241.57189704 172.5199911 221.5625 192.9375 C207.43763636 206.79875487 189.41530792 214.53505147 171 221 C171 223.79663806 172.18664119 224.91434377 173.8125 227.1875 C174.44414062 228.07179687 175.07578125 228.95609375 175.7265625 229.8671875 C176.47679687 230.90101563 177.22703125 231.93484375 178 233 C178.4444043 233.61262695 178.88880859 234.22525391 179.34667969 234.85644531 C185.17225499 242.92462538 185.17225499 242.92462538 191.24609375 250.8046875 C193 253 193 253 194.375 255.3125 C196.19527872 258.32296095 198.25786016 261.05487439 200.40234375 263.83984375 C201.60473178 265.46556643 202.7521556 267.13215905 203.87109375 268.81640625 C206.19310596 272.28877314 208.63965427 275.64396354 211.125 279 C215.35898107 284.74043226 219.5370682 290.51654127 223.65087891 296.34375 C225.38673525 298.79195904 227.15074814 301.18691612 229.03515625 303.5234375 C231.19881609 306.25059523 233.07744016 309.09815874 235 312 C236.7654579 314.47771456 238.56885163 316.92684543 240.375 319.375 C241.10408569 320.36681274 241.10408569 320.36681274 241.84790039 321.37866211 C244.35770711 324.78869367 246.88345377 328.18541074 249.4375 331.5625 C255.57331315 339.71993945 255.57331315 339.71993945 257 344 C254.93933896 344.1357683 252.87607243 344.23233903 250.8125 344.3125 C249.66394531 344.37050781 248.51539063 344.42851562 247.33203125 344.48828125 C242.32040293 343.75386913 240.57616225 341.08456576 237.61791992 337.17211914 C236.10660403 335.09536396 234.64284832 332.99131511 233.1875 330.875 C232.12428887 329.34854655 231.06048656 327.8225047 229.99609375 326.296875 C229.22628174 325.18989258 229.22628174 325.18989258 228.44091797 324.06054688 C225.36208835 319.65774749 222.17287197 315.33514508 219 311 C217.68738099 309.18758618 216.37488335 307.37508447 215.0625 305.5625 C211.43521111 300.56601708 207.72077429 295.63860978 203.98046875 290.7265625 C202 288 202 288 200.51171875 285.515625 C198.73401599 282.55738061 196.71488562 279.87109544 194.625 277.125 C193.83480469 276.07828125 193.04460937 275.0315625 192.23046875 273.953125 C191.49441406 272.97859375 190.75835937 272.0040625 190 271 C185 264.33333333 185 264.33333333 185 262 C184.34 262 183.68 262 183 262 C181.80457522 260.31874988 180.69287157 258.57751917 179.625 256.8125 C177.29245872 252.97459618 174.84164653 249.47618895 172 246 C170.71794423 244.27913751 169.44738826 242.54965754 168.1875 240.8125 C167.48367187 239.86503906 166.77984375 238.91757813 166.0546875 237.94140625 C164 235 164 235 162.3828125 232.02734375 C160.78381061 229.19925832 159.48078699 227.10589194 157 225 C152.47932476 224.32554442 148.46269605 225.20920101 144 226 C135.83726395 226.89460982 127.73560769 227.14063239 119.53027344 227.11352539 C118.34833908 227.11367142 117.16640472 227.11381744 115.94865417 227.1139679 C112.08554171 227.11327747 108.22247893 227.10552623 104.359375 227.09765625 C101.66367622 227.0952291 98.96797748 227.09431727 96.27227783 227.09336853 C89.92966933 227.09027691 83.58707834 227.08209315 77.24447751 227.07201904 C69.30491547 227.05968576 61.3653505 227.05425809 53.42578125 227.04882812 C39.28384057 227.03912617 25.14193803 227.0190878 11 227 C11 265.61 11 304.22 11 344 C7.37 344 3.74 344 0 344 C0 230.48 0 116.96 0 0 Z M11 11 C11 78.65 11 146.3 11 216 C40.514375 216.0928125 40.514375 216.0928125 70.625 216.1875 C79.87845459 216.22846802 79.87845459 216.22846802 89.31884766 216.27026367 C94.94144954 216.28030872 94.94144954 216.28030872 100.5640564 216.28633118 C103.03143954 216.29088046 105.49881684 216.30130916 107.96615601 216.31672668 C123.9226285 216.41128215 139.26105957 215.68451969 155 213 C156.45076519 212.7640672 157.90157813 212.52842782 159.35244751 212.2931366 C168.44038438 210.75787674 176.65499083 207.78495521 185 204 C185.60763184 203.72639648 186.21526367 203.45279297 186.84130859 203.17089844 C209.97519204 192.59646896 225.87261917 176.20046972 234.74560547 152.55493164 C239.391002 139.6252909 241.17926555 127.43565921 241.1875 113.75 C241.19974609 112.69425781 241.21199219 111.63851562 241.22460938 110.55078125 C241.27025579 85.68870221 232.97399681 62.93455426 217 44 C211.56441166 38.61188405 205.38056518 34.191339 199 30 C197.71222656 29.13375 197.71222656 29.13375 196.3984375 28.25 C187.24170706 22.47223206 177.28588255 19.20452458 167 16 C165.92363281 15.65839844 164.84726563 15.31679688 163.73828125 14.96484375 C143.41340674 9.44690374 120.72768322 10.7130989 99.8671875 10.8046875 C97.57039488 10.80764059 95.27360089 10.8096732 92.97680664 10.81079102 C84.60951678 10.8211317 76.24225602 10.84905253 67.875 10.875 C39.721875 10.936875 39.721875 10.936875 11 11 Z " fill="#D9D9D9" transform="translate(4,7)"/>
<path d="M0 0 C2.8290723 2.8290723 3.37611108 3.38144425 4 7 C3.34 6.67 2.68 6.34 2 6 C1.67 109.95 1.34 213.9 1 321 C0.67 321 0.34 321 0 321 C0 215.07 0 109.14 0 0 Z " fill="#797979" transform="translate(365,30)"/>
<path d="M0 0 C0.33 0 0.66 0 1 0 C1 105.93 1 211.86 1 321 C0.67 321 0.34 321 0 321 C0 216.72 0 112.44 0 5 C-0.66 5 -1.32 5 -2 5 C-1.34 3.35 -0.68 1.7 0 0 Z " fill="#121212" transform="translate(683,30)"/>
<path d="M0 0 C2.8290723 2.8290723 3.37611108 3.38144425 4 7 C3.34 6.67 2.68 6.34 2 6 C1.67 15.9 1.34 25.8 1 36 C0.67 36 0.34 36 0 36 C0 24.12 0 12.24 0 0 Z " fill="#7A7A7A" transform="translate(365,30)"/>
<path d="M0 0 C2.8290723 2.8290723 3.37611108 3.38144425 4 7 C3.34 6.67 2.68 6.34 2 6 C1.34 6.99 0.68 7.98 0 9 C0 6.03 0 3.06 0 0 Z " fill="#525252" transform="translate(365,30)"/>
</svg>
